ply
format ascii 1.0
comment Created by Blender 2.72 (sub 0) - www.blender.org, source file: ''
element vertex 116
property float x
property float y
property float z
property float nx
property float ny
property float nz
property float s
property float t
element face 60
property list uchar uint vertex_indices
end_header
-0.001497 0.994447 1.005522 0.193569 -0.005444 0.981072 0.500000 0.000000
-0.001606 -1.005523 0.994445 0.193569 -0.005444 0.981072 0.500000 1.000000
0.381195 -1.005125 0.918920 0.193569 -0.005444 0.981072 0.437500 1.000000
0.381305 0.994844 0.929996 0.554280 -0.004640 0.832318 0.437500 0.000000
0.381195 -1.005125 0.918920 0.554280 -0.004640 0.832318 0.437500 1.000000
0.705954 -1.003945 0.702654 0.554280 -0.004640 0.832318 0.375000 1.000000
0.706064 0.996024 0.713730 0.830607 -0.003129 0.556850 0.375000 0.000000
0.705954 -1.003945 0.702654 0.830607 -0.003129 0.556850 0.375000 1.000000
0.923230 -1.002162 0.378572 0.830607 -0.003129 0.556850 0.312500 1.000000
0.923339 0.997807 0.389648 0.980482 -0.001142 0.196608 0.312500 0.000000
0.923230 -1.002162 0.378572 0.980482 -0.001142 0.196608 0.312500 1.000000
0.999944 -1.000048 -0.003987 0.980482 -0.001142 0.196608 0.250000 1.000000
1.000054 0.999921 0.007089 0.981087 0.001018 -0.193566 0.250000 0.000000
0.999944 -1.000048 -0.003987 0.981087 0.001018 -0.193566 0.250000 1.000000
0.924417 -0.997924 -0.386782 0.981087 0.001018 -0.193566 0.187500 1.000000
0.924527 1.002046 -0.375706 0.832330 0.003024 -0.554272 0.187500 0.000000
0.924417 -0.997924 -0.386782 0.832330 0.003024 -0.554272 0.187500 1.000000
0.708148 -0.996113 -0.711537 0.832330 0.003024 -0.554272 0.125000 1.000000
0.708257 1.003856 -0.700460 0.556860 0.004570 -0.830594 0.125000 0.000000
0.708148 -0.996113 -0.711537 0.556860 0.004570 -0.830594 0.125000 1.000000
0.384061 -0.994892 -0.928809 0.556860 0.004570 -0.830594 0.062500 1.000000
0.384171 1.005077 -0.917733 0.196612 0.005419 -0.980466 0.062500 0.000000
0.384061 -0.994892 -0.928809 0.196612 0.005419 -0.980466 0.062500 1.000000
0.001497 -0.994447 -1.005522 0.196612 0.005419 -0.980466 0.000000 1.000000
0.001606 1.005523 -0.994445 -0.193569 0.005444 -0.981072 1.000000 0.000000
0.001497 -0.994447 -1.005522 -0.193569 0.005444 -0.981072 1.000000 1.000000
-0.381304 -0.994844 -0.929996 -0.193569 0.005444 -0.981072 0.937500 1.000000
-0.381195 1.005125 -0.918920 -0.554279 0.004640 -0.832318 0.937500 0.000000
-0.381304 -0.994844 -0.929996 -0.554279 0.004640 -0.832318 0.937500 1.000000
-0.706064 -0.996024 -0.713730 -0.554279 0.004640 -0.832318 0.875000 1.000000
-0.705954 1.003945 -0.702654 -0.830607 0.003129 -0.556851 0.875000 0.000000
-0.706064 -0.996024 -0.713730 -0.830607 0.003129 -0.556851 0.875000 1.000000
-0.923339 -0.997807 -0.389648 -0.830607 0.003129 -0.556851 0.812500 1.000000
-0.923230 1.002162 -0.378572 -0.980481 0.001142 -0.196608 0.812500 0.000000
-0.923339 -0.997807 -0.389648 -0.980481 0.001142 -0.196608 0.812500 1.000000
-1.000054 -0.999921 -0.007089 -0.980481 0.001142 -0.196608 0.750000 1.000000
-0.999944 1.000048 0.003987 -0.981087 -0.001018 0.193566 0.750000 0.000000
-1.000054 -0.999921 -0.007089 -0.981087 -0.001018 0.193566 0.750000 1.000000
-0.924527 -1.002046 0.375706 -0.981087 -0.001018 0.193566 0.687500 1.000000
-0.924417 0.997924 0.386783 -0.832330 -0.003024 0.554272 0.687500 0.000000
-0.924527 -1.002046 0.375706 -0.832330 -0.003024 0.554272 0.687500 1.000000
-0.708257 -1.003856 0.700461 -0.832330 -0.003024 0.554272 0.625000 1.000000
0.381195 -1.005125 0.918920 -0.000055 -0.999985 -0.005538 1.000000 1.000000
-0.924527 -1.002046 0.375706 -0.000055 -0.999985 -0.005538 0.687500 1.000000
-0.381304 -0.994844 -0.929996 -0.000055 -0.999985 -0.005538 0.937500 1.000000
-0.384061 0.994892 0.928809 -0.196611 -0.005419 0.980467 0.562500 0.000000
-0.384170 -1.005077 0.917733 -0.196611 -0.005419 0.980467 0.562500 1.000000
-0.001606 -1.005523 0.994445 -0.196611 -0.005419 0.980467 0.500000 1.000000
-0.708148 0.996113 0.711537 -0.556859 -0.004570 0.830594 0.625000 0.000000
-0.708257 -1.003856 0.700461 -0.556859 -0.004570 0.830594 0.625000 1.000000
-0.384170 -1.005077 0.917733 -0.556859 -0.004570 0.830594 0.562500 1.000000
-0.001497 0.994447 1.005522 0.000055 0.999985 0.005538 0.500000 0.000000
1.000054 0.999921 0.007089 0.000055 0.999985 0.005538 0.250000 0.000000
0.001606 1.005523 -0.994445 0.000055 0.999985 0.005538 0.000000 0.000000
0.381305 0.994844 0.929996 0.193569 -0.005444 0.981072 0.437500 0.000000
0.706064 0.996024 0.713730 0.554280 -0.004640 0.832318 0.375000 0.000000
0.923339 0.997807 0.389648 0.830607 -0.003129 0.556850 0.312500 0.000000
1.000054 0.999921 0.007089 0.980482 -0.001142 0.196608 0.250000 0.000000
0.924527 1.002046 -0.375706 0.981087 0.001018 -0.193566 0.187500 0.000000
0.708257 1.003856 -0.700460 0.832330 0.003024 -0.554272 0.125000 0.000000
0.384171 1.005077 -0.917733 0.556860 0.004570 -0.830594 0.062500 0.000000
0.001606 1.005523 -0.994445 0.196612 0.005419 -0.980467 0.000000 0.000000
0.384171 1.005077 -0.917733 0.196612 0.005419 -0.980467 0.062500 0.000000
0.001497 -0.994447 -1.005522 0.196612 0.005419 -0.980467 0.000000 1.000000
-0.381195 1.005125 -0.918920 -0.193569 0.005444 -0.981072 0.937500 0.000000
-0.705954 1.003945 -0.702654 -0.554279 0.004640 -0.832318 0.875000 0.000000
-0.923230 1.002162 -0.378572 -0.830607 0.003129 -0.556851 0.812500 0.000000
-0.999944 1.000048 0.003987 -0.980481 0.001142 -0.196608 0.750000 0.000000
-0.924417 0.997924 0.386783 -0.981087 -0.001018 0.193566 0.687500 0.000000
-0.708148 0.996113 0.711537 -0.832330 -0.003024 0.554272 0.625000 0.000000
0.923230 -1.002162 0.378572 -0.000054 -0.999985 -0.005537 0.312500 1.000000
0.705954 -1.003945 0.702654 -0.000054 -0.999985 -0.005537 0.375000 1.000000
0.381195 -1.005125 0.918920 -0.000054 -0.999985 -0.005537 0.437500 1.000000
0.924417 -0.997924 -0.386782 -0.000054 -0.999985 -0.005538 0.187500 1.000000
0.999944 -1.000048 -0.003987 -0.000054 -0.999985 -0.005538 0.250000 1.000000
0.923230 -1.002162 0.378572 -0.000054 -0.999985 -0.005538 0.312500 1.000000
0.384061 -0.994892 -0.928809 -0.000054 -0.999985 -0.005538 0.062500 1.000000
0.708148 -0.996113 -0.711537 -0.000054 -0.999985 -0.005538 0.125000 1.000000
0.001497 -0.994447 -1.005522 -0.000055 -0.999985 -0.005538 1.000000 1.000000
0.384061 -0.994892 -0.928809 -0.000055 -0.999985 -0.005538 1.000000 1.000000
-0.923339 -0.997807 -0.389648 -0.000055 -0.999985 -0.005538 0.812500 1.000000
-0.706064 -0.996024 -0.713730 -0.000055 -0.999985 -0.005538 0.875000 1.000000
-0.924527 -1.002046 0.375706 -0.000054 -0.999985 -0.005538 0.687500 1.000000
-1.000054 -0.999921 -0.007089 -0.000054 -0.999985 -0.005538 0.750000 1.000000
-0.923339 -0.997807 -0.389648 -0.000054 -0.999985 -0.005538 0.812500 1.000000
-0.384170 -1.005077 0.917733 -0.000054 -0.999985 -0.005539 0.562500 1.000000
-0.708257 -1.003856 0.700461 -0.000054 -0.999985 -0.005539 0.625000 1.000000
-0.924527 -1.002046 0.375706 -0.000054 -0.999985 -0.005539 0.687500 1.000000
0.381195 -1.005125 0.918920 -0.000055 -0.999985 -0.005538 0.437500 1.000000
-0.001606 -1.005523 0.994445 -0.000055 -0.999985 -0.005538 0.500000 1.000000
-0.384170 -1.005077 0.917733 -0.000055 -0.999985 -0.005538 0.562500 1.000000
0.924417 -0.997924 -0.386782 -0.000055 -0.999985 -0.005538 0.187500 1.000000
0.923230 -1.002162 0.378572 -0.000055 -0.999985 -0.005538 0.312500 1.000000
0.924417 -0.997924 -0.386782 -0.000055 -0.999985 -0.005538 1.000000 1.000000
-0.001497 0.994447 1.005522 -0.196611 -0.005419 0.980467 0.500000 0.000000
-0.384061 0.994892 0.928809 -0.556859 -0.004570 0.830594 0.562500 0.000000
-0.708148 0.996113 0.711537 0.000055 0.999985 0.005538 0.625000 0.000000
-0.384061 0.994892 0.928809 0.000055 0.999985 0.005538 0.562500 0.000000
-0.999944 1.000048 0.003987 0.000055 0.999985 0.005538 0.750000 0.000000
-0.924417 0.997924 0.386783 0.000055 0.999985 0.005538 0.687500 0.000000
-0.705954 1.003945 -0.702654 0.000055 0.999985 0.005538 0.875000 0.000000
-0.923230 1.002162 -0.378572 0.000055 0.999985 0.005538 0.812500 0.000000
0.001606 1.005523 -0.994445 0.000055 0.999985 0.005539 1.000000 0.000000
-0.381195 1.005125 -0.918920 0.000055 0.999985 0.005539 0.937500 0.000000
-0.705954 1.003945 -0.702654 0.000055 0.999985 0.005539 0.875000 0.000000
0.708257 1.003856 -0.700460 0.000055 0.999985 0.005537 0.125000 0.000000
0.384171 1.005077 -0.917733 0.000055 0.999985 0.005537 0.062500 0.000000
0.001606 1.005523 -0.994445 0.000055 0.999985 0.005537 0.000000 0.000000
0.924527 1.002046 -0.375706 0.000055 0.999985 0.005538 0.187500 0.000000
0.708257 1.003856 -0.700460 0.000055 0.999985 0.005538 0.125000 0.000000
0.706064 0.996024 0.713730 0.000055 0.999985 0.005538 0.375000 0.000000
0.923339 0.997807 0.389648 0.000055 0.999985 0.005538 0.312500 0.000000
-0.001497 0.994447 1.005522 0.000054 0.999985 0.005538 0.500000 0.000000
0.381305 0.994844 0.929996 0.000054 0.999985 0.005538 0.437500 0.000000
0.706064 0.996024 0.713730 0.000054 0.999985 0.005538 0.375000 0.000000
0.001606 1.005523 -0.994445 0.000055 0.999985 0.005538 1.000000 0.000000
3 0 1 2
3 3 4 5
3 6 7 8
3 9 10 11
3 12 13 14
3 15 16 17
3 18 19 20
3 21 22 23
3 24 25 26
3 27 28 29
3 30 31 32
3 33 34 35
3 36 37 38
3 39 40 41
3 42 43 44
3 45 46 47
3 48 49 50
3 51 52 53
3 54 0 2
3 55 3 5
3 56 6 8
3 57 9 11
3 58 12 14
3 59 15 17
3 60 18 20
3 61 62 63
3 64 24 26
3 65 27 29
3 66 30 32
3 67 33 35
3 68 36 38
3 69 39 41
3 70 71 72
3 73 74 75
3 76 77 73
3 44 78 79
3 80 81 44
3 82 83 84
3 85 86 87
3 88 89 90
3 91 92 88
3 44 79 93
3 43 80 44
3 88 90 43
3 44 93 42
3 94 45 47
3 95 48 50
3 96 97 51
3 98 99 96
3 100 101 98
3 102 103 104
3 105 106 107
3 52 108 109
3 110 111 52
3 112 113 114
3 98 96 51
3 115 100 98
3 52 109 53
3 51 110 52
3 115 98 51
